<?xml version="1.0" encoding="utf-8"?>
<!-- Generator: Adobe Illustrator 21.0.2, SVG Export Plug-In . SVG Version: 6.00 Build 0)  -->
<svg version="1.1" id="Layer_1" xmlns="http://www.w3.org/2000/svg" xmlns:xlink="http://www.w3.org/1999/xlink" x="0px" y="0px"
	 viewBox="0 0 200 200" style="enable-background:new 0 0 200 200;" xml:space="preserve">
<g transform="translate(0,-952.36218)">
	<path d="M176.1,952.8c-0.4,0.1-0.7,0.3-1,0.6L154.2,972c-0.5,0.4-0.8,1.1-0.8,1.7V996l-4.4,4.4c-15.8-15-37.2-24.3-60.8-24.3
		c-48.8,0-88.4,39.6-88.4,88.4c0,48.8,39.6,88.4,88.4,88.4s88.4-39.6,88.4-88.4c0-23.6-9.3-44.9-24.3-60.8l4.4-4.4H179
		c0.7,0,1.3-0.3,1.7-0.8l18.6-20.9c0.8-1,0.7-2.4-0.2-3.3c-0.4-0.4-1-0.6-1.5-0.6H179v-18.6c0-1.3-1-2.4-2.3-2.4
		C176.5,952.7,176.3,952.8,176.1,952.8z M174.3,960.3v15.8c0,1.3,1,2.3,2.3,2.3h15.7l-14.5,16.3H158v-19.9L174.3,960.3z M88.3,980.7
		c22.3,0,42.5,8.7,57.5,22.9l-19.8,19.8c-9.9-9.1-23.2-14.8-37.7-14.8c-30.8,0-55.8,25-55.8,55.8c0,30.8,25,55.8,55.8,55.8
		s55.8-25,55.8-55.8c0-14.6-5.6-27.8-14.8-37.8l19.7-19.7c14.2,15,23,35.2,23,57.5c0,46.3-37.5,83.7-83.7,83.7s-83.7-37.5-83.7-83.7
		C4.5,1018.2,42,980.7,88.3,980.7z M88.3,1013.3c13.3,0,25.4,5,34.4,13.3l-18.2,18.2c-4.4-3.7-10.1-5.9-16.3-5.9
		c-14.1,0-25.6,11.5-25.6,25.6s11.5,25.6,25.6,25.6c14.1,0,25.6-11.5,25.6-25.6c0-6.2-2.2-11.9-6-16.4l18.2-18.2
		c8.3,9.1,13.4,21.2,13.4,34.5c0,28.3-22.9,51.2-51.2,51.2s-51.2-22.9-51.2-51.2C37.1,1036.1,60,1013.3,88.3,1013.3z M88.3,1043.5
		c4.9,0,9.4,1.7,13,4.6l-14.7,14.7c-0.9,0.9-0.9,2.4,0.1,3.3c0.9,0.9,2.4,0.9,3.3,0l14.7-14.7c2.9,3.6,4.6,8.1,4.6,13.1
		c0,11.6-9.3,20.9-20.9,20.9c-11.6,0-20.9-9.3-20.9-20.9C67.3,1052.8,76.7,1043.5,88.3,1043.5z"/>
</g>
</svg>
